<svg width="550" height="580" viewBox="0 0 550 580" fill="none" xmlns="http://www.w3.org/2000/svg">
<path d="M83.9805 240.449H12.3761C5.56923 240.449 0 234.88 0 228.073V156.469C0 149.662 5.56923 144.093 12.3761 144.093H83.9805C90.7873 144.093 96.3565 149.662 96.3565 156.469V228.073C96.3565 234.88 90.7873 240.449 83.9805 240.449Z" fill="#FFC943"/>
<path d="M83.9805 231.786H12.3761C5.56923 231.786 0 226.217 0 219.41V147.717C0 140.91 5.56923 135.341 12.3761 135.341H83.9805C90.7873 135.341 96.3565 140.91 96.3565 147.717V219.41C96.3565 226.217 90.7873 231.786 83.9805 231.786Z" fill="#FFAD00"/>
<path d="M62.234 155.408H54.8967C46.5871 155.408 41.283 160.889 41.283 169.375V175.828H33.8574C33.2386 175.828 32.7082 176.359 32.7082 176.978V186.348C32.7082 186.967 33.2386 187.497 33.8574 187.497H41.283V211.1C41.283 211.719 41.8134 212.249 42.4322 212.249H52.0679C52.6867 212.249 53.2171 211.719 53.2171 211.1V187.497H61.8804C62.4992 187.497 63.0296 186.967 63.0296 186.348V176.978C63.0296 176.712 62.9412 176.359 62.676 176.182C62.4992 176.005 62.1456 175.828 61.8804 175.828H53.2171V170.348C53.2171 167.696 53.8359 166.37 57.2835 166.37H62.234C62.8528 166.37 63.3832 165.839 63.3832 165.22V156.557C63.3832 155.85 62.8528 155.408 62.234 155.408Z" fill="white"/>
<path d="M196.249 166.193H124.645C117.838 166.193 112.269 160.624 112.269 153.817V82.2125C112.269 75.4057 117.838 69.8364 124.645 69.8364H196.249C203.056 69.8364 208.625 75.4057 208.625 82.2125V153.817C208.625 160.624 203.056 166.193 196.249 166.193Z" fill="#FFC943"/>
<path d="M196.249 157.53H124.645C117.838 157.53 112.269 151.96 112.269 145.154V73.4608C112.269 66.6539 117.838 61.0847 124.645 61.0847H196.249C203.056 61.0847 208.625 66.6539 208.625 73.4608V145.154C208.625 151.96 203.056 157.53 196.249 157.53Z" fill="#FFAD00"/>
<path d="M129.949 343.878H78.6764C71.8696 343.878 66.3004 338.309 66.3004 331.502V280.229C66.3004 273.423 71.8696 267.853 78.6764 267.853H129.949C136.756 267.853 142.325 273.423 142.325 280.229V331.502C142.325 338.309 136.756 343.878 129.949 343.878Z" fill="#FFC943"/>
<path d="M129.949 337.955H78.6764C71.8696 337.955 66.3004 332.386 66.3004 325.579V274.218C66.3004 267.411 71.8696 261.842 78.6764 261.842H129.949C136.756 261.842 142.325 267.411 142.325 274.218V325.579C142.325 332.474 136.756 337.955 129.949 337.955Z" fill="#FFAD00"/>
<path d="M113.418 274.748H95.2073C86.8093 274.748 80.0024 281.555 80.0024 289.953V308.164C80.0024 316.562 86.8093 323.369 95.2073 323.369H113.418C121.816 323.369 128.623 316.562 128.623 308.164V289.953C128.623 281.555 121.816 274.748 113.418 274.748ZM124.026 308.075C124.026 313.91 119.252 318.683 113.418 318.683H95.2073C89.3729 318.683 84.5993 313.91 84.5993 308.075V289.865C84.5993 284.03 89.3729 279.257 95.2073 279.257H113.418C119.252 279.257 124.026 284.03 124.026 289.865V308.075Z" fill="white"/>
<path d="M104.313 286.859C97.5941 286.859 92.2017 292.252 92.2017 298.97C92.2017 305.689 97.5941 311.081 104.313 311.081C111.031 311.081 116.423 305.689 116.423 298.97C116.423 292.252 111.031 286.859 104.313 286.859ZM104.313 306.573C100.158 306.573 96.7101 303.125 96.7101 298.97C96.7101 294.815 100.158 291.368 104.313 291.368C108.467 291.368 111.915 294.727 111.915 298.97C111.915 303.213 108.467 306.573 104.313 306.573Z" fill="white"/>
<path d="M117.396 287.566C118.275 287.566 118.987 286.854 118.987 285.975C118.987 285.096 118.275 284.384 117.396 284.384C116.517 284.384 115.805 285.096 115.805 285.975C115.805 286.854 116.517 287.566 117.396 287.566Z" fill="white"/>
<path d="M305.424 430.157C289.688 430.245 276.782 419.549 268.826 406.731C260.251 392.94 256.096 377.116 250.173 362.088C244.427 347.414 236.737 334.154 224.714 323.722C213.134 313.556 199.432 306.219 185.906 299.059C181.398 296.672 177.331 303.567 181.928 305.954C204.647 317.888 226.482 330.529 238.239 354.397C249.378 377.116 253.002 404.167 271.39 422.819C280.406 431.925 292.429 438.201 305.424 438.024C310.551 438.024 310.551 430.068 305.424 430.157Z" fill="#3E3E3E"/>
<path d="M254.947 386.575C254.947 386.575 224.537 392.41 211.808 369.426C199.078 346.441 240.096 351.922 240.096 351.922L254.947 386.575Z" fill="#3E3E3E"/>
<path d="M213.134 320.894C213.134 320.894 190.857 342.375 167.607 330.176C144.358 317.977 181.751 300.12 181.751 300.12L213.134 320.894Z" fill="#3E3E3E"/>
<path d="M215.167 317.888C215.167 317.888 222.681 287.832 200.492 273.865C178.304 259.897 181.486 301.18 181.486 301.18L215.167 317.888Z" fill="#3E3E3E"/>
<path d="M251.853 378.354C251.853 378.354 276.87 360.144 268.826 335.126C260.781 310.109 236.737 343.878 236.737 343.878L251.853 378.354Z" fill="#3E3E3E"/>
<path d="M380.918 484.258C380.918 484.258 387.636 371.724 549.409 299.236C549.409 299.236 522.624 490.799 380.918 484.258Z" fill="#3E3E3E"/>
<path d="M340.961 546.227C342.64 520.679 358.552 499.64 381.183 488.501C392.852 482.844 404.874 478.335 415.748 471.175C425.472 464.81 434.4 457.207 441.826 448.191C450.047 438.201 456.323 426.798 459.771 414.245C461.097 409.294 453.406 407.173 452.08 412.123C445.715 435.638 428.389 454.379 407.88 466.755C396.565 473.561 383.923 477.805 372.343 484.17C361.646 490.092 352.63 498.402 345.823 508.48C338.309 519.707 333.977 532.701 333.093 546.138C332.651 551.354 340.607 551.354 340.961 546.227Z" fill="#FFC943"/>
<path d="M55.3387 579.112L63.3831 518.204H38.0122V499.905H66.3004L72.2232 454.821H45.4378V436.522H74.9636L83.0081 377.205H101.042L93.2625 436.522H125.617L133.662 377.205H151.96L144.181 436.522H169.729V454.821H141.441L135.872 499.905H162.568V518.204H133.043L124.998 579.112H106.346L114.39 518.204H82.1241L74.0796 579.112H55.3387ZM117.219 499.905L123.142 454.821H90.7873L84.8645 499.905H117.219Z" fill="#494949"/>
<path d="M205.266 531.199H309.755V181.31L186.79 263.257L165.397 229.841L323.723 113.418H360.939V531.287H463.395V579.2H205.266V531.199Z" fill="#FFC943"/>
<path d="M45.6146 579.112L53.6591 518.204H28.2881V499.905H56.5763L62.4991 454.821H35.7138V436.522H65.2396L73.284 377.205H91.3177L83.5384 436.522H115.893L123.937 377.205H142.236L134.457 436.522H160.005V454.821H131.717L126.147 499.905H152.844V518.204H123.319L115.274 579.112H96.6217L104.666 518.204H72.4L64.3555 579.112H45.6146ZM107.495 499.905L113.418 454.821H81.0632L75.1404 499.905H107.495Z" fill="#3E3E3E"/>
<path d="M184.934 531.199H289.423V181.31L182.989 255.831L156.999 217.907L303.39 113.418H340.607V531.287H443.063V579.2H184.934V531.199Z" fill="#FFAD00"/>
<path d="M286.152 83.9805H387.459V0L349.27 38.189L336.806 0L317.358 41.5482L286.152 0V83.9805Z" fill="#303030"/>
<path d="M280.23 0H286.418L317.358 41.5482L330.618 0H336.806L350.066 39.7802L381.006 0H387.194V83.9805H280.23V0Z" fill="#3E3E3E"/>
<path d="M279.964 83.9805H381.271V0L343.082 38.189L330.618 0L311.17 41.5482L279.964 0V83.9805Z" fill="white"/>
<path d="M191.122 89.815C188.823 90.8758 186.348 91.583 183.696 91.8482C186.348 90.257 188.381 87.6934 189.354 84.6877C186.879 86.1906 184.138 87.2514 181.133 87.7818C178.834 85.3065 175.475 83.7153 171.762 83.7153C164.69 83.7153 158.856 89.4614 158.856 96.6218C158.856 97.5942 158.944 98.655 159.209 99.539C148.513 99.0086 138.966 93.8814 132.689 86.1021C131.54 87.9586 130.921 90.257 130.921 92.5554C130.921 97.0638 133.22 100.953 136.667 103.252C134.546 103.163 132.601 102.633 130.833 101.661V101.837C130.833 108.114 135.253 113.329 141.176 114.479C140.115 114.744 138.966 114.921 137.816 114.921C137.021 114.921 136.225 114.832 135.341 114.656C137.021 119.783 141.706 123.496 147.364 123.584C142.944 127.032 137.374 129.065 131.363 129.065C130.302 129.065 129.33 128.976 128.269 128.888C134.015 132.512 140.734 134.634 148.071 134.634C171.762 134.634 184.757 115.009 184.757 98.0362V96.3566C187.232 94.677 189.354 92.3786 191.122 89.815Z" fill="white"/>
</svg>
