<svg width="90" height="90" viewBox="0 0 90 90" fill="none" xmlns="http://www.w3.org/2000/svg">
<circle cx="45" cy="45" r="45" fill="white"/>
<path fill-rule="evenodd" clip-rule="evenodd" d="M25.9688 20.25C24.053 20.25 22.5 21.7998 22.5 23.7115V61.0962C22.5 63.0079 24.053 64.5577 25.9688 64.5577H53.0515C55.7 64.5577 58.2404 65.6084 60.1152 67.4793L66.9 74.25V61.0962V48.1154V23.7115C66.9 21.7998 65.347 20.25 63.4313 20.25H25.9688Z" fill="#FFAD00"/>
<path fill-rule="evenodd" clip-rule="evenodd" d="M30.8195 39.45C31.4377 39.45 31.9338 39.9528 31.9872 40.5687C32.5539 47.0926 38.0292 52.2111 44.7001 52.2111C51.3709 52.2111 56.8463 47.0926 57.4129 40.5687C57.4664 39.9528 57.9624 39.45 58.5807 39.45C59.1989 39.45 59.7044 39.9529 59.6589 40.5694C59.0863 48.3309 52.6078 54.45 44.7001 54.45C36.7924 54.45 30.3138 48.3309 29.7412 40.5694C29.6957 39.9529 30.2012 39.45 30.8195 39.45Z" fill="white"/>
</svg>
