<svg width="697" height="576" viewBox="0 0 697 576" fill="none" xmlns="http://www.w3.org/2000/svg">
<path d="M320.978 382.379L334.799 391.593C338.877 394.312 341.369 398.919 341.369 403.828V423.917L320.978 382.379Z" fill="#CE9300"/>
<path d="M514.32 196.59H361.006C355.19 196.59 350.432 191.832 350.432 186.016V32.702C350.432 26.8867 355.19 22.1287 361.006 22.1287H514.32C520.135 22.1287 524.893 26.8867 524.893 32.702V186.016C524.893 191.832 520.135 196.59 514.32 196.59Z" fill="#FFC943"/>
<path d="M272.642 112.002H191.076C185.261 112.002 180.503 107.244 180.503 101.429V19.8629C180.503 14.0476 185.261 9.28955 191.076 9.28955H272.642C278.458 9.28955 283.216 14.0476 283.216 19.8629V101.429C283.216 107.244 278.458 112.002 272.642 112.002Z" fill="#494949"/>
<path d="M478.295 343.862C485.772 314.181 519.229 305.571 545.738 303.003C561.22 301.493 576.929 301.039 592.185 297.641C606.233 294.469 619.147 288.351 630.627 279.666C643.466 270.074 654.493 258.368 665.368 246.586C668.314 243.414 663.555 238.581 660.535 241.753C650.565 252.477 640.521 263.353 628.965 272.416C616.882 281.856 603.363 288.351 588.333 291.448C558.199 297.641 524.667 292.883 497.327 309.498C485.243 316.899 475.274 328.077 471.724 341.973C470.667 346.278 477.162 348.091 478.295 343.862Z" fill="#303030"/>
<path d="M544.907 299.68C544.907 299.68 547.55 263.051 577.76 255.498C607.97 247.946 589.089 293.26 589.089 293.26L544.907 299.68Z" fill="#303030"/>
<path d="M633.044 271.887C633.044 271.887 615.22 239.789 636.367 216.905C657.514 194.022 666.501 242.281 666.501 242.281L633.044 271.887Z" fill="#303030"/>
<path d="M635.763 275.21C635.763 275.21 667.86 293.034 690.744 271.887C713.628 250.74 665.368 241.753 665.368 241.753L635.763 275.21Z" fill="#303030"/>
<path d="M555.254 298.698C555.254 298.698 568.471 332.91 599.587 331.4C630.702 329.814 599.435 291.976 599.435 291.976L555.254 298.698Z" fill="#303030"/>
<path d="M143.496 238.128H47.5802C41.7649 238.128 37.0069 233.37 37.0069 227.554V131.639C37.0069 125.823 41.7649 121.065 47.5802 121.065H143.496C149.311 121.065 154.069 125.823 154.069 131.639V227.554C154.069 233.37 149.311 238.128 143.496 238.128Z" fill="#FFC943"/>
<path d="M522.552 250.816C522.552 250.816 528.292 154.673 666.501 92.7437C666.501 92.7437 643.617 256.405 522.552 250.816Z" fill="#3E3E3E"/>
<path d="M488.415 303.758C489.85 281.932 503.444 263.957 522.778 254.441C532.748 249.607 543.019 245.756 552.308 239.638C560.616 234.2 568.244 227.705 574.588 220.002C581.612 211.468 586.974 201.725 589.919 191.001C591.052 186.771 584.482 184.959 583.349 189.188C577.911 209.277 563.108 225.289 545.587 235.862C535.92 241.677 525.12 245.302 515.226 250.74C506.088 255.8 498.384 262.9 492.569 271.509C486.149 281.101 482.449 292.203 481.693 303.683C481.316 308.139 488.113 308.139 488.415 303.758Z" fill="#FFAD00"/>
<path d="M143.496 229.065H47.5802C41.7649 229.065 37.0069 224.307 37.0069 218.492V122.576C37.0069 116.76 41.7649 112.002 47.5802 112.002H143.496C149.311 112.002 154.069 116.76 154.069 122.576V218.492C154.069 224.307 149.311 229.065 143.496 229.065Z" fill="#FFAD00"/>
<path d="M109.586 131.639H81.5661C68.6515 131.639 58.2291 142.137 58.2291 154.976V182.995C58.2291 195.91 68.727 206.332 81.5661 206.332H109.586C122.5 206.332 132.923 195.834 132.923 182.995V154.976C132.923 142.137 122.425 131.639 109.586 131.639ZM125.899 183.071C125.899 192.058 118.573 199.459 109.51 199.459H81.4906C72.5032 199.459 65.1019 192.134 65.1019 183.071V155.051C65.1019 146.064 72.4277 138.662 81.4906 138.662H109.51C118.497 138.662 125.899 145.988 125.899 155.051V183.071Z" fill="white"/>
<path d="M95.5381 150.369C85.1913 150.369 76.8081 158.752 76.8081 169.099C76.8081 179.445 85.1913 187.829 95.5381 187.829C105.885 187.829 114.268 179.445 114.268 169.099C114.268 158.752 105.885 150.369 95.5381 150.369ZM95.5381 180.729C89.1185 180.729 83.8318 175.518 83.8318 169.023C83.8318 162.604 89.043 157.317 95.5381 157.317C102.033 157.317 107.244 162.604 107.244 169.023C107.244 175.443 101.958 180.729 95.5381 180.729Z" fill="white"/>
<path d="M115.628 151.426C117.004 151.426 118.12 150.31 118.12 148.934C118.12 147.557 117.004 146.441 115.628 146.441C114.251 146.441 113.135 147.557 113.135 148.934C113.135 150.31 114.251 151.426 115.628 151.426Z" fill="white"/>
<path d="M272.642 102.788H191.076C185.261 102.788 180.503 98.0304 180.503 92.215V10.5734C180.503 4.75802 185.261 0 191.076 0H272.642C278.458 0 283.216 4.75802 283.216 10.5734V92.215C283.216 98.0304 278.458 102.788 272.642 102.788Z" fill="#3E3E3E"/>
<path d="M469.911 361.987H143.345C130.053 361.987 119.328 351.263 119.328 337.971V186.62C119.328 173.328 130.053 162.604 143.345 162.604H469.911C483.204 162.604 493.928 173.328 493.928 186.62V337.971C493.928 351.263 483.204 361.987 469.911 361.987Z" fill="#FFC943"/>
<path d="M514.32 187.527H361.006C355.19 187.527 350.432 182.769 350.432 176.953V23.6391C350.432 17.8237 355.19 13.0657 361.006 13.0657H514.32C520.135 13.0657 524.893 17.8237 524.893 23.6391V176.953C524.893 182.769 520.135 187.527 514.32 187.527Z" fill="#FFAD00"/>
<path d="M510.544 453.372C533.902 453.372 552.837 434.436 552.837 411.078C552.837 387.72 533.902 368.785 510.544 368.785C487.185 368.785 468.25 387.72 468.25 411.078C468.25 434.436 487.185 453.372 510.544 453.372Z" fill="#FFC943"/>
<path d="M479.73 44.7859H396.351C390.611 44.7859 385.929 49.4684 385.929 55.2082V138.587C385.929 144.327 390.611 149.009 396.351 149.009H479.73C485.469 149.009 490.152 144.327 490.152 138.587V55.2082C490.152 49.4684 485.469 44.7859 479.73 44.7859ZM417.196 133.376H401.562V86.4752H417.196V133.376ZM409.417 77.6389C404.205 77.6389 400.052 73.4851 400.052 68.2739C400.052 63.0627 404.205 58.9089 409.417 58.9089C414.628 58.9089 418.782 63.0627 418.782 68.2739C418.782 73.4096 414.552 77.6389 409.417 77.6389ZM474.518 133.376H458.885V105.734C458.885 101.58 455.26 97.8794 451.106 97.8794C446.952 97.8794 443.327 101.505 443.327 105.734V133.376H427.693V86.4752H443.327V92.7437C445.895 88.5899 451.635 85.4179 456.317 85.4179C466.211 85.4179 474.594 93.7256 474.594 103.619V133.376H474.518Z" fill="white"/>
<path d="M469.534 347.638H142.967C129.675 347.638 118.951 336.913 118.951 323.621V180.201C118.951 166.909 129.675 156.184 142.967 156.184H469.534C482.826 156.184 493.551 166.909 493.551 180.201V323.621C493.551 336.913 482.826 347.638 469.534 347.638Z" fill="white"/>
<path d="M469.609 155.806H142.137C129.146 155.806 118.573 166.38 118.573 179.37C118.573 180.578 119.555 181.485 120.688 181.485H490.983C492.191 181.485 493.097 180.503 493.097 179.37C493.173 166.38 482.6 155.806 469.609 155.806Z" fill="#3E3E3E"/>
<path d="M314.709 311.311H166.757C157.166 311.311 149.387 303.532 149.387 293.94V237.373C149.387 227.781 157.166 220.002 166.757 220.002H314.709C324.301 220.002 332.08 227.781 332.08 237.373V293.94C332.155 303.532 324.301 311.311 314.709 311.311Z" fill="#FFAD00"/>
<path d="M468.401 238.128H359.344C354.435 238.128 350.432 234.125 350.432 229.216C350.432 224.307 354.435 220.304 359.344 220.304H468.401C473.31 220.304 477.313 224.307 477.313 229.216C477.313 234.125 473.31 238.128 468.401 238.128Z" fill="#FFAD00"/>
<path d="M468.401 273.322H359.344C354.435 273.322 350.432 269.319 350.432 264.41C350.432 259.501 354.435 255.498 359.344 255.498H468.401C473.31 255.498 477.313 259.501 477.313 264.41C477.313 269.395 473.31 273.322 468.401 273.322Z" fill="#FFAD00"/>
<path d="M468.401 311.386H359.344C354.435 311.386 350.432 307.383 350.432 302.474C350.432 297.565 354.435 293.562 359.344 293.562H468.401C473.31 293.562 477.313 297.565 477.313 302.474C477.313 307.383 473.31 311.386 468.401 311.386Z" fill="#FFAD00"/>
<path d="M517.718 503.369C521.948 494.004 532.597 490.001 538.185 481.618C543.548 473.612 542.188 464.021 534.636 458.054C527.234 452.163 517.492 451.71 509.562 447.028C499.215 440.986 502.765 429.128 509.637 421.802C512.583 418.63 507.825 413.797 504.804 416.969C498.384 423.842 493.551 434.113 497.478 443.478C501.178 452.314 510.695 455.411 519.078 458.054C527.688 460.773 539.243 466.588 533.05 477.313C527.763 486.451 516.434 490.152 511.978 500.046C510.015 503.897 515.906 507.371 517.718 503.369Z" fill="#3E3E3E"/>
<path d="M560.012 570.434H496.571C490.53 570.434 485.62 565.525 485.62 559.483V505.861C485.62 499.819 490.53 494.91 496.571 494.91H560.012C566.054 494.91 570.963 499.819 570.963 505.861V559.483C570.963 565.525 566.054 570.434 560.012 570.434Z" fill="#3E3E3E"/>
<path d="M572.851 509.26H482.977C476.935 509.26 472.026 504.351 472.026 498.309C472.026 492.267 476.935 487.358 482.977 487.358H572.851C578.893 487.358 583.802 492.267 583.802 498.309C583.802 504.351 578.893 509.26 572.851 509.26Z" fill="#FFAD00"/>
<path d="M514.32 453.372C537.678 453.372 556.613 434.436 556.613 411.078C556.613 387.72 537.678 368.785 514.32 368.785C490.962 368.785 472.026 387.72 472.026 411.078C472.026 434.436 490.962 453.372 514.32 453.372Z" fill="#FFAD00"/>
<path d="M246.813 21.2979H238.959C230.122 21.2979 224.458 27.1887 224.458 36.1761V43.0488H216.528C215.848 43.0488 215.319 43.5775 215.319 44.2572V54.2264C215.319 54.9061 215.848 55.4348 216.528 55.4348H224.458V80.5843C224.458 81.2641 224.987 81.7927 225.666 81.7927H235.938C236.617 81.7927 237.146 81.2641 237.146 80.5843V55.4348H246.36C247.04 55.4348 247.568 54.9061 247.568 54.2264V44.2572C247.568 43.9551 247.417 43.653 247.191 43.3509C246.964 43.1244 246.662 42.9733 246.284 42.9733H237.07V37.2335C237.07 34.4391 237.75 33.0041 241.375 33.0041H246.662C247.342 33.0041 247.87 32.4754 247.87 31.7957V22.5818C248.097 21.8265 247.493 21.2979 246.813 21.2979Z" fill="white"/>
<path d="M273.549 245.756C271.585 242.282 269.47 241.677 265.165 241.451C260.86 241.149 250.061 241.073 240.696 241.073C231.331 241.073 220.531 241.224 216.226 241.451C211.921 241.677 209.806 242.357 207.843 245.831C205.803 249.305 204.822 255.272 204.822 265.694C204.822 276.116 205.879 282.158 207.843 285.557C209.806 289.031 211.921 289.635 216.226 289.937C220.531 290.164 231.331 290.315 240.696 290.315C250.061 290.315 260.86 290.164 265.165 289.937C269.47 289.635 271.585 289.031 273.549 285.557C275.588 282.158 276.569 276.116 276.569 265.694C276.569 255.121 275.588 249.154 273.549 245.756ZM231.784 279.062V252.175L254.214 265.619L231.784 279.062Z" fill="white"/>
<path d="M329.361 417.045L341.52 408.661C344.919 406.32 348.922 405.112 353 405.112H390.913C395.747 405.112 399.598 401.26 399.598 396.426C399.598 391.593 395.747 387.741 390.913 387.741H346.354C344.088 387.741 341.898 388.119 339.783 388.95L319.316 396.502L329.361 417.045Z" fill="#D6A5A5"/>
<path d="M329.361 418.555L341.52 410.172C344.919 407.831 348.922 406.622 353 406.622H390.913C395.747 406.622 399.598 402.771 399.598 397.937C399.598 393.103 395.747 389.252 390.913 389.252H346.354C344.088 389.252 341.898 389.629 339.783 390.46L319.316 398.013L329.361 418.555Z" fill="#FFD5D8"/>
<path d="M123.255 533.881L111.323 547.173C109.661 548.985 107.32 550.043 104.903 550.043H69.8599C65.0263 550.043 61.1746 553.894 61.1746 558.728C61.1746 563.562 65.0263 567.413 69.8599 567.413H114.117C116.081 567.413 117.893 566.809 119.404 565.601L139.116 550.345C143.345 547.022 143.647 540.678 139.644 537.053L135.566 533.352C132.016 530.029 126.503 530.331 123.255 533.881Z" fill="#FFD5D8"/>
<path d="M541.659 394.161C539.696 395.067 537.581 395.671 535.316 395.898C537.581 394.538 539.318 392.348 540.149 389.78C538.034 391.064 535.693 391.97 533.125 392.424C531.162 390.309 528.292 388.949 525.12 388.949C519.078 388.949 514.093 393.859 514.093 399.976C514.093 400.807 514.169 401.713 514.395 402.468C505.257 402.015 497.1 397.635 491.738 390.989C490.756 392.575 490.228 394.538 490.228 396.502C490.228 400.354 492.191 403.677 495.137 405.64C493.324 405.565 491.662 405.112 490.152 404.281V404.432C490.152 409.794 493.928 414.25 498.988 415.232C498.082 415.458 497.1 415.609 496.118 415.609C495.439 415.609 494.759 415.534 494.004 415.383C495.439 419.763 499.441 422.935 504.275 423.011C500.499 425.956 495.741 427.693 490.605 427.693C489.699 427.693 488.868 427.618 487.962 427.542C492.871 430.639 498.611 432.451 504.879 432.451C525.12 432.451 536.222 415.685 536.222 401.184V399.749C538.336 398.314 540.149 396.351 541.659 394.161Z" fill="white"/>
<path d="M169.929 478.295C170.156 480.183 174.461 554.574 174.461 554.574L258.293 494.91L220.531 456.393L195.608 432.829L175.971 442.798L169.929 478.295Z" fill="#FFAD00"/>
<path d="M148.254 464.323L98.1814 532.672L154.825 570.434L169.929 478.295L191.831 436.001C174.31 439.777 158.827 449.897 148.254 464.323Z" fill="#FFAD00"/>
<path d="M230.349 469.232L283.971 474.518L341.369 423.917L320.978 382.379L274.908 426.183L195.608 432.829L230.349 469.232Z" fill="#FFAD00"/>
<path d="M167.966 445.895L186.318 452.314C192.436 454.429 198.931 450.653 200.064 444.309L202.178 432.3C202.178 432.3 183.297 432.3 167.966 445.895Z" fill="#DE9700"/>
<path d="M169.929 478.295L174.461 554.574L176.349 553.29C185.487 546.946 189.339 535.24 185.714 524.667L169.929 478.295Z" fill="#DE9700"/>
<path d="M233.445 469.534L283.971 474.518L341.369 423.917L288.276 464.021C284.5 466.89 279.893 468.477 275.135 468.628L233.445 469.534Z" fill="#DE9700"/>
<path d="M169.929 478.295L154.825 570.434L147.423 565.525L169.929 478.295Z" fill="#DE9700"/>
<path d="M110.643 534.938C112.937 534.938 114.797 533.078 114.797 530.784C114.797 528.49 112.937 526.63 110.643 526.63C108.349 526.63 106.489 528.49 106.489 530.784C106.489 533.078 108.349 534.938 110.643 534.938Z" fill="white"/>
<path d="M118.951 522.854C121.245 522.854 123.104 520.994 123.104 518.7C123.104 516.406 121.245 514.546 118.951 514.546C116.656 514.546 114.797 516.406 114.797 518.7C114.797 520.994 116.656 522.854 118.951 522.854Z" fill="white"/>
<path d="M126.654 511.676C128.948 511.676 130.808 509.817 130.808 507.522C130.808 505.228 128.948 503.369 126.654 503.369C124.36 503.369 122.5 505.228 122.5 507.522C122.5 509.817 124.36 511.676 126.654 511.676Z" fill="white"/>
<path d="M295.753 418.933C298.047 418.933 299.907 417.073 299.907 414.779C299.907 412.485 298.047 410.625 295.753 410.625C293.459 410.625 291.599 412.485 291.599 414.779C291.599 417.073 293.459 418.933 295.753 418.933Z" fill="white"/>
<path d="M307.081 409.643C309.375 409.643 311.235 407.783 311.235 405.489C311.235 403.195 309.375 401.335 307.081 401.335C304.787 401.335 302.927 403.195 302.927 405.489C302.927 407.783 304.787 409.643 307.081 409.643Z" fill="white"/>
<path d="M317.655 401.109C319.949 401.109 321.809 399.249 321.809 396.955C321.809 394.661 319.949 392.801 317.655 392.801C315.361 392.801 313.501 394.661 313.501 396.955C313.501 399.249 315.361 401.109 317.655 401.109Z" fill="white"/>
<path d="M172.195 377.848C154.296 377.848 139.795 392.348 139.72 410.248C137.379 412.74 135.944 416.063 135.944 419.764C135.944 427.392 142.061 433.585 149.689 433.736C155.504 439.324 163.434 442.798 172.195 442.798C190.094 442.798 204.671 428.222 204.671 410.323C204.671 392.424 190.094 377.848 172.195 377.848Z" fill="#FFD5D8"/>
<path d="M138.209 410.323C138.209 410.323 155.58 412.589 162.377 399.75C164.039 396.578 164.945 393.859 165.398 391.744C166.229 387.288 170.08 384.041 174.612 384.192C179.974 384.343 185.638 383.965 188.131 382.002C191.338 379.482 184.818 375.434 179.193 372.639C174.755 370.434 169.672 369.986 164.992 371.615C153.272 375.692 132.118 386.511 138.209 410.323Z" fill="#3E3E3E"/>
<path d="M203.307 410.1C209.097 407.729 211.33 399.799 208.295 392.387C205.259 384.976 198.105 380.891 192.315 383.262C186.525 385.633 184.292 393.564 187.328 400.975C190.363 408.386 197.517 412.471 203.307 410.1Z" fill="#FFAD00"/>
<path d="M129.524 402.015C140.577 402.015 149.538 393.055 149.538 382.001C149.538 370.948 140.577 361.988 129.524 361.988C118.471 361.988 109.51 370.948 109.51 382.001C109.51 393.055 118.471 402.015 129.524 402.015Z" fill="#3E3E3E"/>
<path d="M199.384 410.323C205.64 410.323 210.712 403.898 210.712 395.973C210.712 388.048 205.64 381.624 199.384 381.624C193.127 381.624 188.055 388.048 188.055 395.973C188.055 403.898 193.127 410.323 199.384 410.323Z" fill="#3E3E3E"/>
<path d="M194.399 382.228L204.671 397.484L196.967 380.944C196.967 380.944 195.457 381.397 194.399 382.228Z" fill="white"/>
<path d="M179.135 425.099C184.925 422.728 187.287 415.111 184.409 408.086C181.532 401.06 174.506 397.288 168.716 399.659C162.926 402.03 160.565 409.648 163.442 416.673C166.319 423.698 173.345 427.47 179.135 425.099Z" fill="#FFAD00"/>
<path d="M175.971 426.183C182.228 426.183 187.3 419.759 187.3 411.833C187.3 403.908 182.228 397.484 175.971 397.484C169.715 397.484 164.643 403.908 164.643 411.833C164.643 419.759 169.715 426.183 175.971 426.183Z" fill="#3E3E3E"/>
<path d="M169.476 398.843L179.748 414.099L172.044 397.559C172.044 397.559 170.534 398.012 169.476 398.843Z" fill="white"/>
<path d="M278.458 541.962L319.467 526.63L370.824 553.819L410.852 509.26L313.425 483.582L264.335 516.057L243.943 537.959L264.335 544.001L278.458 541.962Z" fill="#E09800"/>
<path d="M380.264 540.527L398.39 558.652L435.472 521.57C438.947 518.096 437.436 512.885 432.98 512.885L407.831 513.036L380.264 540.527Z" fill="#3E3E3E"/>
<path d="M187.073 545.587L209.202 575.721L264.335 516.057L250.665 500.348L187.073 545.587Z" fill="#3E3E3E"/>
<path d="M209.202 575.721H423.691V532.672L286.614 544.68C275.059 545.662 263.428 543.17 253.384 537.43L247.719 534.183L209.202 575.721Z" fill="#FFAD00"/>
<path d="M423.691 573.455H449.369V524.062C449.369 519.153 444.309 516.51 441.061 519.682L423.691 536.297V573.455Z" fill="#3E3E3E"/>
<path d="M29.0768 341.596C45.1355 341.596 58.1536 328.578 58.1536 312.519C58.1536 296.461 45.1355 283.442 29.0768 283.442C13.0181 283.442 0 296.461 0 312.519C0 328.578 13.0181 341.596 29.0768 341.596Z" fill="#FFC943"/>
<path d="M29.0768 337.065C45.1355 337.065 58.1536 324.046 58.1536 307.988C58.1536 291.929 45.1355 278.911 29.0768 278.911C13.0181 278.911 0 291.929 0 307.988C0 324.046 13.0181 337.065 29.0768 337.065Z" fill="#FFAD00"/>
<path d="M594.753 75.7508C610.812 75.7508 623.83 62.7327 623.83 46.674C623.83 30.6153 610.812 17.5972 594.753 17.5972C578.694 17.5972 565.676 30.6153 565.676 46.674C565.676 62.7327 578.694 75.7508 594.753 75.7508Z" fill="#FFC943"/>
<path d="M594.753 71.2193C610.812 71.2193 623.83 58.2012 623.83 42.1425C623.83 26.0838 610.812 13.0657 594.753 13.0657C578.694 13.0657 565.676 26.0838 565.676 42.1425C565.676 58.2012 578.694 71.2193 594.753 71.2193Z" fill="#FFAD00"/>
<path d="M84.2095 59.1356C96.973 59.1356 107.32 48.7887 107.32 36.0252C107.32 23.2617 96.973 12.9148 84.2095 12.9148C71.446 12.9148 61.0991 23.2617 61.0991 36.0252C61.0991 48.7887 71.446 59.1356 84.2095 59.1356Z" fill="#FFC943"/>
<path d="M84.2095 55.5104C96.973 55.5104 107.32 45.1635 107.32 32.4C107.32 19.6364 96.973 9.28955 84.2095 9.28955C71.446 9.28955 61.0991 19.6364 61.0991 32.4C61.0991 45.1635 71.446 55.5104 84.2095 55.5104Z" fill="#FFAD00"/>
<path d="M646.109 393.708C658.873 393.708 669.22 383.361 669.22 370.597C669.22 357.834 658.873 347.487 646.109 347.487C633.346 347.487 622.999 357.834 622.999 370.597C622.999 383.361 633.346 393.708 646.109 393.708Z" fill="#FFC943"/>
<path d="M646.109 390.082C658.873 390.082 669.22 379.735 669.22 366.972C669.22 354.208 658.873 343.862 646.109 343.862C633.346 343.862 622.999 354.208 622.999 366.972C622.999 379.735 633.346 390.082 646.109 390.082Z" fill="#FFAD00"/>
<path d="M27.1887 330.267V324.905C24.0922 324.83 20.9202 323.923 19.0321 322.564L20.316 319.014C22.2041 320.298 24.9984 321.28 28.0194 321.28C31.7956 321.28 34.3635 319.09 34.3635 316.069C34.3635 313.123 32.2488 311.311 28.3215 309.725C22.8838 307.61 19.4852 305.118 19.4852 300.511C19.4852 296.055 22.6572 292.732 27.5663 291.901V286.463H30.8894V291.675C34.0614 291.75 36.2515 292.656 37.8376 293.563L36.4781 297.112C35.3453 296.508 33.1551 295.3 29.7565 295.3C25.6782 295.3 24.0922 297.716 24.0922 299.907C24.0922 302.701 26.0558 304.061 30.7383 306.024C36.2516 308.29 38.9704 311.009 38.9704 315.767C38.9704 319.996 36.025 323.923 30.5117 324.83V330.343H27.1887V330.267Z" fill="white"/>
<path d="M82.699 50.0724V45.7675C80.2822 45.692 77.7144 44.9368 76.2039 43.8794L77.1857 41.0095C78.6962 41.9913 80.8864 42.8221 83.3032 42.8221C86.3241 42.8221 88.3633 41.085 88.3633 38.6683C88.3633 36.327 86.7018 34.8921 83.6053 33.6082C79.3004 31.9466 76.657 29.983 76.657 26.2823C76.657 22.7327 79.1493 20.0893 83.0766 19.4851V15.3313H85.7199V19.4096C88.2878 19.4851 90.0248 20.1648 91.2332 20.9201L90.1759 23.7145C89.2696 23.1858 87.5325 22.2795 84.8136 22.2795C81.5661 22.2795 80.3577 24.2432 80.3577 25.9047C80.3577 28.0949 81.9437 29.2277 85.5689 30.7382C89.9493 32.5508 92.1395 34.741 92.1395 38.5172C92.1395 41.8403 89.7982 45.0123 85.4178 45.692V50.0724H82.699Z" fill="white"/>
<path d="M593.696 63.6669V58.6823C590.826 58.6067 587.805 57.776 586.068 56.4921L587.276 53.169C589.089 54.3774 591.656 55.2837 594.451 55.2837C598 55.2837 600.342 53.2445 600.342 50.4501C600.342 47.7312 598.378 45.9942 594.753 44.5592C589.693 42.5956 586.521 40.2544 586.521 35.9495C586.521 31.7956 589.466 28.6991 593.998 27.9439V22.8838H597.094V27.7173C600.04 27.7929 602.079 28.6236 603.589 29.4544L602.381 32.7019C601.324 32.0977 599.284 31.0404 596.112 31.0404C592.261 31.0404 590.826 33.3061 590.826 35.3453C590.826 37.9131 592.638 39.197 597.019 41.0096C602.154 43.1243 604.722 45.6921 604.722 50.0725C604.722 53.9998 602.003 57.7004 596.868 58.5312V63.6669H593.696Z" fill="white"/>
<path d="M645.279 385.4V380.944C642.711 380.869 640.067 380.113 638.557 378.98L639.614 376.035C641.2 377.092 643.466 377.923 645.958 377.923C649.13 377.923 651.245 376.111 651.245 373.618C651.245 371.202 649.508 369.691 646.26 368.332C641.729 366.595 639.01 364.555 639.01 360.704C639.01 357.003 641.578 354.284 645.656 353.604V349.148H648.375V353.453C651.018 353.529 652.831 354.284 654.115 354.964L652.982 357.909C652.076 357.381 650.263 356.399 647.393 356.399C643.995 356.399 642.711 358.438 642.711 360.175C642.711 362.441 644.372 363.649 648.148 365.235C652.68 367.123 655.021 369.389 655.021 373.316C655.021 376.79 652.604 380.038 648.073 380.793V385.4H645.279Z" fill="white"/>
</svg>
