<svg width="26" height="25" viewBox="0 0 26 25" fill="none" xmlns="http://www.w3.org/2000/svg">
<path d="M17.7037 0H8.32874C4.01467 0 0.516235 3.49844 0.516235 7.8125V17.1875C0.516235 21.5016 4.01467 25 8.32874 25H17.7037C22.0178 25 25.5162 21.5016 25.5162 17.1875V7.8125C25.5162 3.49844 22.0178 0 17.7037 0ZM23.1725 17.1875C23.1725 20.2031 20.7194 22.6562 17.7037 22.6562H8.32874C5.31311 22.6562 2.85999 20.2031 2.85999 17.1875V7.8125C2.85999 4.79688 5.31311 2.34375 8.32874 2.34375H17.7037C20.7194 2.34375 23.1725 4.79688 23.1725 7.8125V17.1875Z" fill="#C6C6C6"/>
<path d="M13.0162 6.25C9.56467 6.25 6.76624 9.04844 6.76624 12.5C6.76624 15.9516 9.56467 18.75 13.0162 18.75C16.4678 18.75 19.2662 15.9516 19.2662 12.5C19.2662 9.04844 16.4678 6.25 13.0162 6.25ZM13.0162 16.4062C10.8631 16.4062 9.10999 14.6531 9.10999 12.5C9.10999 10.3453 10.8631 8.59375 13.0162 8.59375C15.1694 8.59375 16.9225 10.3453 16.9225 12.5C16.9225 14.6531 15.1694 16.4062 13.0162 16.4062Z" fill="#C6C6C6"/>
<path d="M19.735 6.61411C20.1949 6.61411 20.5678 6.24125 20.5678 5.7813C20.5678 5.32135 20.1949 4.94849 19.735 4.94849C19.275 4.94849 18.9022 5.32135 18.9022 5.7813C18.9022 6.24125 19.275 6.61411 19.735 6.61411Z" fill="#C6C6C6"/>
</svg>
