<svg width="252" height="43" viewBox="0 0 252 43" fill="none" xmlns="http://www.w3.org/2000/svg">
<path d="M22.9195 31.3015C22.9195 29.826 22.3923 28.6762 21.3379 27.8523C20.3026 27.0283 18.4718 26.1756 15.8453 25.2941C13.2188 24.4127 11.0716 23.5599 9.40363 22.736C3.97809 20.0724 1.26532 16.4124 1.26532 11.756C1.26532 9.43739 1.93632 7.39661 3.27833 5.63369C4.63951 3.8516 6.55666 2.47193 9.02978 1.49465C11.5029 0.498217 14.2828 0 17.3694 0C20.3793 0 23.0729 0.536542 25.4502 1.60963C27.8466 2.68271 29.7063 4.21569 31.0291 6.20856C32.3519 8.18226 33.0134 10.4434 33.0134 12.992H22.9483C22.9483 11.2865 22.4211 9.96435 21.3667 9.0254C20.3314 8.08645 18.9223 7.61698 17.1393 7.61698C15.3372 7.61698 13.9089 8.01939 12.8545 8.8242C11.8192 9.60985 11.3016 10.6159 11.3016 11.8422C11.3016 12.9153 11.8768 13.8926 13.027 14.7741C14.1773 15.6364 16.1999 16.537 19.0948 17.4759C21.9897 18.3957 24.367 19.3922 26.2266 20.4652C30.7511 23.0713 33.0134 26.6642 33.0134 31.244C33.0134 34.904 31.633 37.7783 28.8723 39.867C26.1116 41.9557 22.3252 43 17.5132 43C14.1198 43 11.0428 42.3964 8.28209 41.1892C5.54057 39.9628 3.47004 38.2957 2.07052 36.1878C0.690175 34.0608 0 31.6176 0 28.8583H10.1226C10.1226 31.1003 10.6977 32.7578 11.848 33.8309C13.0175 34.8848 14.9059 35.4118 17.5132 35.4118C19.1811 35.4118 20.4944 35.0573 21.4529 34.3483C22.4307 33.6201 22.9195 32.6045 22.9195 31.3015Z" fill="white"/>
<path d="M51.4468 0.574866L60.7929 29.6918L70.1102 0.574866H83.3961V33.8309H73.2735V32.6524L74.2513 12.6471L64.1287 42.4251H57.457L47.3057 12.6183L48.2835 32.6524V42.4251H38.1897V0.574866H51.4468Z" fill="white"/>
<path d="M103.095 0.574866L112.441 29.6918L121.758 0.574866H135.044V42.4251H124.922V32.6524L125.899 12.6471L115.777 42.4251H109.105L98.9538 12.6183L99.9315 32.6524V33.8309H89.8377V0.574866H103.095Z" fill="white"/>
<path d="M165.786 34.607H151.953L149.538 42.4251H138.754L154.11 0.574866H163.6L179.072 42.4251H168.23L165.786 34.607ZM154.369 26.8175H163.37L158.855 12.3021L154.369 26.8175Z" fill="white"/>
<path d="M197.706 27.6511H192.242V34.607H182.149V0.574866H198.626C203.592 0.574866 207.474 1.67669 210.273 3.88035C213.072 6.084 214.472 9.19786 214.472 13.2219C214.472 16.1346 213.877 18.549 212.689 20.4652C211.519 22.3815 209.679 23.9336 207.167 25.1217L215.91 41.994V42.4251H205.097L197.706 27.6511ZM192.242 19.8616H198.626C200.544 19.8616 201.982 19.3634 202.94 18.367C203.918 17.3514 204.407 15.943 204.407 14.1417C204.407 12.3405 203.918 10.932 202.94 9.91644C201.962 8.88169 200.524 8.36431 198.626 8.36431H192.242V19.8616Z" fill="white"/>
<path d="M252 8.36431H239.433V32.6524H229.339V8.36431H217.002V0.574866H252V8.36431Z" fill="white"/>
</svg>
