<svg width="32" height="25" viewBox="0 0 32 25" fill="none" xmlns="http://www.w3.org/2000/svg">
<path d="M31.2935 2.95789C30.1607 3.45984 28.9453 3.80025 27.6682 3.95222C28.9722 3.17137 29.9704 1.93284 30.4434 0.46156C29.2203 1.18468 27.8701 1.70975 26.4316 1.99439C25.2796 0.76546 23.641 0 21.8235 0C18.3367 0 15.5096 2.82714 15.5096 6.31202C15.5096 6.80627 15.5653 7.289 15.6731 7.75061C10.4265 7.48709 5.77428 4.97346 2.66059 1.1539C2.1163 2.08476 1.80667 3.16941 1.80667 4.32723C1.80667 6.51781 2.92215 8.45064 4.6146 9.58146C3.57989 9.54686 2.60673 9.26222 1.75477 8.78909V8.86795C1.75477 11.9259 3.93187 14.478 6.8186 15.0588C6.2897 15.2011 5.73199 15.28 5.15501 15.28C4.74731 15.28 4.35304 15.2396 3.96647 15.1627C4.77035 17.6725 7.10133 19.4976 9.86309 19.5476C7.7033 21.2401 4.98001 22.2459 2.02211 22.2459C1.51248 22.2459 1.01048 22.2152 0.516235 22.1594C3.31069 23.9538 6.62825 25 10.1939 25C21.8082 25 28.1568 15.38 28.1568 7.0371L28.1356 6.21974C29.3761 5.33499 30.4492 4.22339 31.2935 2.95789Z" fill="#C6C6C6"/>
</svg>
